<!-- Guarda esto como /public/icons/google.svg -->
<svg xmlns="http://www.w3.org/2000/svg" width="46" height="46" viewBox="0 0 48 48">
  <path fill="#4285F4" d="M24 9.5c3.16 0 5.65 1.1 7.34 2.6l5.48-5.48C33.9 3.22 29.32 1.5 24 1.5 14.82 1.5 7.28 7.1 3.9 15.06l6.73 5.23C12.1 14.87 17.56 9.5 24 9.5z"/>
  <path fill="#34A853" d="M46.1 24.5c0-1.6-.14-3.13-.4-4.6H24v9.1h12.4c-.53 2.84-2.17 5.24-4.5 6.88l6.98 5.42c4.09-3.78 6.42-9.36 6.42-16.8z"/>
  <path fill="#FBBC05" d="M10.63 28.2c-.47-1.4-.74-2.9-.74-4.45s.27-3.05.74-4.45l-6.73-5.23C2.67 17.42 1.5 20.61 1.5 24s1.17 6.58 3.4 9.93l6.73-5.23z"/>
  <path fill="#EA4335" d="M24 46.5c5.83 0 10.7-1.93 14.27-5.26l-6.98-5.42c-1.92 1.3-4.4 2.07-7.29 2.07-6.43 0-11.89-5.38-13.37-12.5l-6.73 5.23C7.28 40.9 14.82 46.5 24 46.5z"/>
  <path fill="none" d="M0 0h48v48H0z"/>
</svg>
